<?xml version="1.0" encoding="utf-8"?>
<!-- Generator: Adobe Illustrator 16.0.0, SVG Export Plug-In . SVG Version: 6.00 Build 0)  -->
<!DOCTYPE svg PUBLIC "-//W3C//DTD SVG 1.1//EN" "http://www.w3.org/Graphics/SVG/1.1/DTD/svg11.dtd">
<svg version="1.1" id="Calque_1" xmlns="http://www.w3.org/2000/svg" xmlns:xlink="http://www.w3.org/1999/xlink" x="0px" y="0px"
	 width="432px" height="432px" viewBox="0 0 432 432" enable-background="new 0 0 432 432" xml:space="preserve">
<g>
	<path d="M87.646,198.682c-1.186,0.568-2.062,1.295-2.971,1.965c-5.561,4.104-10.587,8.784-15.016,14.09
		c-1.063,1.273-2.101,2.591-2.854,4.089c-0.271,0.539-0.641,0.831-1.252,0.686c-0.549-0.129-0.826-0.629-0.736-1.356
		c0.132-1.067,0.576-2.023,1.164-2.905c1.806-2.708,3.908-5.17,6.203-7.475c4.438-4.458,9.3-8.396,14.572-11.824
		c0.571-0.372,0.844-0.75,0.812-1.477c-0.146-3.283-0.254-6.568-0.323-9.854c-0.104-4.862-0.194-9.726-0.223-14.589
		c-0.01-1.57,0.155-3.142,0.54-4.684c0.23-0.92,0.69-1.71,1.238-2.445c1.271-1.702,3.3-1.58,4.461,0.197
		c1.065,1.631,1.396,3.481,1.653,5.347c0.527,3.825,0.621,7.682,0.749,11.535c0.115,3.455,0.225,6.911,0.343,10.583
		c3.053-1.304,5.938-2.637,8.942-3.663c2.976-1.016,5.987-1.906,9.041-2.665c-0.007-0.092-0.014-0.185-0.021-0.277
		c-0.971,0-1.941,0.009-2.912-0.004c-0.363-0.005-0.515,0.256-0.742,0.46c-1.011,0.908-1.924,0.865-2.861-0.124
		c-0.86-0.908-1.364-2.046-1.842-3.167c-1.848-4.336-3.071-8.841-3.462-13.554c-0.092-1.103,0.074-2.188,0.247-3.27
		c0.084-0.527,0.361-0.988,0.661-1.422c0.999-1.441,2.604-1.559,3.794-0.276c0.297,0.319,0.554,0.675,0.833,1.021
		c0.484-0.222,0.501-0.708,0.672-1.088c0.671-1.485,1.417-2.921,2.575-4.097c1.932-1.959,4.319-2.336,6.433-0.964
		c1.397,0.907,2.165,2.282,2.519,3.868c0.726,3.255-0.188,6.15-2.07,8.801c-0.651,0.917-1.408,1.752-2.432,2.723
		c1.109,0.06,1.918,0.151,2.693,0.411c2.527,0.849,3.941,3.063,3.421,5.47c-0.309,1.431-1.13,2.562-2.351,3.364
		c-0.686,0.451-1.43,0.814-2.236,1.266c0.375,0.226,0.705,0.106,1.002,0.045c7.902-1.626,15.894-2.04,23.938-1.807
		c6.492,0.188,12.943,0.813,19.366,1.752c3.772,0.552,7.55,1.07,11.318,1.642c4.808,0.729,9.612,1.483,14.413,2.251
		c5.71,0.914,11.422,1.786,17.185,2.321c4.938,0.458,9.879,0.726,14.834,0.661c4.825-0.063,9.632-0.43,14.404-1.171
		c1.237-0.192,1.244-0.196,1.5-1.397c0.798-3.737,1.908-7.379,3.502-10.852c2.219-4.835,5.446-8.863,9.89-11.853
		c1.392-0.936,2.932-1.6,4.548-2.003c4.435-1.105,8.184,1.431,8.948,5.96c0.408,2.42-0.063,4.708-0.984,6.93
		c-1.256,3.029-3.297,5.456-5.824,7.505c-3.066,2.487-6.527,4.27-10.241,5.53c-1.153,0.392-1.657,0.957-1.833,2.146
		c-0.576,3.897-1.282,7.771-1.728,11.693c-0.435,3.835-0.709,7.676-0.874,11.522c-0.169,3.927-0.229,7.863,0.055,11.794
		c0.217,3.01,0.37,6.025,0.558,9.037c0.023,0.374,0.079,0.746,0.296,1.142c0.429-1.316,0.837-2.64,1.288-3.948
		c3.077-8.931,7.928-16.77,14.57-23.481c2.078-2.099,4.393-3.902,7.27-4.83c0.71-0.229,1.428-0.412,2.171-0.488
		c2.261-0.233,4.034,0.792,5.458,2.361c1.756,1.935,2.577,4.344,3.001,6.899c0.88,5.31,0.328,10.577-0.557,15.814
		c-0.978,5.783-2.053,11.55-3.162,17.309c-0.679,3.53-1.176,7.081-1.513,10.654c-0.131,1.391-0.166,2.801,0.256,4.24
		c0.788-0.264,1.156-0.931,1.576-1.507c1.579-2.17,2.845-4.522,3.958-6.959c2.768-6.062,5.159-12.279,7.565-18.489
		c1.013-2.615,1.96-5.257,3.035-7.845c0.658-1.583,0.88-3.202,0.829-4.876c-0.119-3.978,0.568-7.845,1.46-11.7
		c0.576-2.494,1.424-4.872,2.571-7.146c1.777-3.524,4.314-6.287,8.16-7.553c2.762-0.91,5.377-0.594,7.608,1.443
		c2.135,1.947,3.558,4.332,4.116,7.172c0.804,4.085-1.146,7.881-4.979,9.973c-2.66,1.454-5.551,1.828-8.503,1.954
		c-1.607,0.069-1.521-0.141-1.719,1.699c-0.384,3.552-0.195,7.094,0.11,10.629c0.124,1.43,0.448,2.856,0.81,4.25
		c0.771,2.966,1.525,5.944,2.655,8.799c0.726,1.836,1.573,3.603,3.215,4.869c1.604,1.239,3.307,1.494,5.184,0.8
		c2.688-0.993,4.912-2.677,6.908-4.685c3.35-3.37,5.772-7.375,7.837-11.61c2.434-4.991,4.222-10.193,5.026-15.713
		c0.356-2.448,0.391-2.417-1.943-3.313c-3.492-1.341-6.48-3.378-8.308-6.725c-2.384-4.367-2.502-8.861-0.313-13.364
		c0.483-0.997,1.188-1.842,2.104-2.486c1.517-1.066,3.085-1.118,4.69-0.2c1.596,0.911,2.543,2.386,3.375,3.941
		c1.679,3.139,2.509,6.532,2.879,10.047c0.221,2.094,0.313,4.196,0.254,6.304c-0.028,1.038-0.012,1.049,1.02,1.279
		c1.324,0.296,2.653,0.575,3.98,0.86c1.638,0.352,3.22,0.892,4.655,1.742c2.921,1.729,4.128,4.509,4.59,7.734
		c0.62,4.33-0.094,8.556-0.945,12.77c-1.067,5.28-2.518,10.47-3.762,15.709c-0.304,1.276-0.451,2.59-0.648,3.89
		c-0.54,3.546-1.124,7.086-1.359,10.673c-0.136,2.068-0.07,4.114,0.344,6.145c0.167,0.821,0.432,1.613,0.914,2.307
		c0.587,0.843,1.121,0.984,2.024,0.519c0.828-0.427,1.492-1.068,2.127-1.741c2.273-2.406,4.111-5.126,5.746-7.987
		c4.267-7.468,7.765-15.311,11.231-23.168c1.433-3.247,2.868-6.492,4.308-9.736c0.268-0.601,0.543-1.205,1.003-1.688
		c0.523-0.55,1.096-0.671,1.509-0.326c0.51,0.425,0.35,0.901,0.127,1.424c-3.228,7.578-6.488,15.141-9.643,22.749
		c-2.441,5.889-5.392,11.502-8.815,16.867c-1.394,2.185-3.049,4.183-5.063,5.844c-2.463,2.031-5.065,2.021-7.519-0.014
		c-0.678-0.562-1.279-1.206-1.775-1.929c-2.916-4.252-4.183-9.001-4.307-14.117c-0.089-3.671,0.651-7.21,1.358-10.783
		c0.681-3.439,1.502-6.839,2.339-10.239c0.743-3.019,1.535-6.026,2.028-9.099c0.499-3.113,0.98-6.219,0.474-9.398
		c-0.418-2.62-1.77-4.42-4.206-5.43c-0.603-0.25-1.158-0.628-1.913-0.681c-0.285,1.672-0.522,3.351-0.861,5.008
		c-1.331,6.504-3.839,12.551-7.174,18.271c-2.362,4.052-5.238,7.669-8.946,10.579c-1.417,1.112-2.92,2.076-4.598,2.778
		c-2.767,1.157-5.479,0.933-8.174-0.179c-1.297-0.536-2.53-1.209-3.696-1.991c-3.275-2.193-5.504-5.223-6.957-8.846
		c-1.131-2.82-1.823-5.751-2.082-8.782c-0.012-0.129-0.034-0.262-0.084-0.38c-0.029-0.07-0.121-0.113-0.254-0.229
		c-0.272,0.663-0.545,1.297-0.796,1.94c-2.659,6.816-5.292,13.644-7.982,20.448c-1.405,3.556-3.105,6.963-5.51,9.976
		c-0.496,0.622-1.043,1.188-1.715,1.616c-1.086,0.693-2.187,0.568-3.1-0.337c-0.81-0.802-1.162-1.846-1.478-2.896
		c-0.851-2.827-1.188-5.741-1.394-8.672c-0.479-6.837-0.163-13.651,0.49-20.467c0.4-4.187,1.147-8.331,1.408-12.532
		c0.166-2.674,0.163-5.338-0.258-7.99c-0.034-0.216-0.061-0.436-0.121-0.646c-0.326-1.145-0.762-1.427-1.924-1.214
		c-0.908,0.167-1.772,0.467-2.603,0.884c-2.801,1.408-5.023,3.521-6.992,5.889c-6.377,7.669-10.552,16.393-12.344,26.229
		c-0.669,3.671-1.133,7.361-1.093,11.102c0.003,0.306,0.002,0.62-0.063,0.917c-0.16,0.737-0.584,1.256-1.329,1.49
		c-0.747,0.234-1.385,0.031-1.941-0.473c-0.677-0.613-0.991-1.45-1.259-2.279c-1.35-4.167-2.666-8.344-3.644-12.618
		c-0.282-1.236-0.486-2.49-0.725-3.736c-0.048-0.255-0.07-0.52-0.362-0.727c-1.116,2.205-2.196,4.401-3.331,6.568
		c-2.04,3.895-4.354,7.611-7.381,10.832c-1.727,1.837-3.69,3.343-6.084,4.261c-2.639,1.014-5.096,0.688-7.351-0.936
		c-3.952-2.845-7.027-6.408-8.895-10.973c-1.23-3.009-2.326-6.042-2.72-9.291c-0.057-0.469-0.064-0.958-0.336-1.453
		c-0.48,0.115-0.479,0.566-0.596,0.892c-1.412,3.962-2.801,7.932-4.217,11.893c-1.238,3.465-2.471,6.935-4.225,10.188
		c-0.689,1.278-1.461,2.502-2.479,3.545c-0.989,1.015-2.131,1.659-3.639,1.38c-0.916-0.169-1.615-0.64-2.199-1.328
		c-1.882-2.215-3.023-4.798-3.813-7.566c-0.579-2.031-0.873-4.108-1.123-6.196c-0.205-1.712,0-3.421,0.1-5.118
		c0.273-4.634,0.682-9.26,1.05-13.887c0.08-1.005,0.07-2.004,0.02-3.083c-0.75,0.097-1.199,0.599-1.686,0.997
		c-2.697,2.209-4.926,4.86-7.033,7.613c-1.599,2.088-3.124,4.232-4.704,6.334c-1.057,1.404-2.172,2.762-3.664,3.738
		c-1.774,1.162-3.836,1.158-5.272-0.018c-1.029-0.842-1.824-1.874-2.446-3.055c-2.047-3.885-3.305-8.005-3.778-12.368
		c-0.028-0.258-0.105-0.511-0.159-0.763c-0.464,0.012-0.445,0.398-0.568,0.648c-2.148,4.364-3.968,8.885-6.266,13.177
		c-1.281,2.395-2.558,4.799-4.29,6.915c-0.332,0.406-0.692,0.792-1.054,1.172c-2.492,2.625-5.5,2.937-8.618,1.24
		c-2.897-1.577-5.204-3.831-7.019-6.591c-0.966-1.469-1.76-3.021-2.48-4.624c-0.705-1.566-1.001-3.257-1.648-4.954
		c-0.439,0.9-0.469,1.813-0.614,2.684c-0.784,4.713-1.635,9.412-2.939,14.013c-0.634,2.235-1.343,4.452-2.521,6.476
		c-0.352,0.603-0.739,1.202-1.205,1.717c-1.149,1.272-2.653,1.342-3.972,0.249c-1.104-0.916-1.823-2.132-2.513-3.35
		c-2.249-3.974-4.069-8.14-5.658-12.423c-1.558-4.198-2.775-8.49-3.833-12.828c-0.859-3.526-1.569-7.089-1.897-10.716
		c-0.051-0.564-0.238-1.117-0.287-1.682c-0.263-3.007-0.527-6.014-0.741-9.025C88.061,205.677,87.87,202.274,87.646,198.682z
		 M105.282,257.347c0.813-0.455,1.11-1.252,1.46-1.996c1.182-2.513,1.932-5.18,2.518-7.873c1.379-6.336,2.636-12.698,3.951-19.048
		c0.117-0.565,0.17-1.132,0.101-1.699c-0.237-1.953-0.447-3.908-0.498-5.875c-0.124-4.7,0.058-9.351,1.416-13.923
		c0.893-3.007,2.33-5.665,4.307-8.042c1.393-1.675,3.124-2.943,5.224-3.638c2.262-0.749,4.484-0.718,6.621,0.425
		c1.499,0.802,2.704,1.948,3.625,3.367c1.166,1.795,1.96,3.716,1.804,5.925c-0.262,3.7-2.09,6.449-5.175,8.382
		c-2.557,1.603-5.373,2.561-8.361,2.959c-0.695,0.093-0.979,0.296-0.979,1.037c0.004,2.979,0.195,5.94,0.584,8.893
		c0.48,3.66,1.418,7.212,2.454,10.743c0.74,2.522,1.533,5.023,2.638,7.418c0.43,0.932,0.979,1.762,1.69,2.484
		c0.966,0.98,1.735,1.063,2.939,0.351c1.042-0.615,1.805-1.521,2.525-2.463c1.631-2.131,2.925-4.472,4.203-6.821
		c2.768-5.083,5.093-10.382,7.604-15.59c0.212-0.439,0.304-0.9,0.353-1.389c0.413-4.154,1.107-8.232,2.797-12.106
		c1.573-3.608,3.449-6.97,6.408-9.658c2.649-2.407,5.656-3.959,9.269-4.172c3.098-0.182,5.777,0.843,8.001,2.989
		c1.355,1.308,1.903,3.014,2.129,4.837c0.072,0.583-0.138,1.051-0.731,1.243c-0.596,0.193-1.012-0.093-1.32-0.583
		c-0.07-0.111-0.124-0.232-0.188-0.347c-0.833-1.495-2.154-2.292-3.803-2.512c-1.783-0.238-3.471,0.074-5.036,1.042
		c-2.453,1.518-3.954,3.831-5.215,6.294c-2.091,4.084-3.337,8.444-4.042,12.983c-0.662,4.263-0.924,8.536-0.694,12.836
		c0.104,1.922,0.238,3.849,0.921,5.687c0.68,1.83,1.29,2.036,2.881,0.902c0.25-0.178,0.491-0.37,0.72-0.574
		c0.951-0.854,1.742-1.853,2.512-2.863c3.772-4.95,7.528-9.914,11.592-14.632c0.828-0.961,1.686-1.909,2.614-2.771
		c2.102-1.95,4.722-1.762,6.597,0.398c1.372,1.581,1.776,3.514,1.849,5.5c0.073,2.01,0.064,4.026-0.115,6.041
		c-0.253,2.834-0.406,5.677-0.611,8.515c-0.176,2.445-0.355,4.89-0.553,7.333c-0.187,2.315-0.461,4.623-0.442,6.951
		c0.009,1.141,0.064,2.28,0.329,3.391c0.158,0.664,0.377,0.725,0.895,0.271c0.938-0.822,1.552-1.892,2.137-2.973
		c1.337-2.47,2.422-5.057,3.454-7.664c2.417-6.111,4.583-12.316,6.828-18.492c0.445-1.223,0.666-2.469,0.675-3.726
		c0.03-4.384,0.834-8.638,2.246-12.752c1.293-3.766,3.206-7.187,6.467-9.692c4.602-3.535,10.369-3.291,14.502,0.275
		c2.458,2.122,3.737,4.917,4.494,7.999c0.052,0.21,0.077,0.434,0.073,0.65c-0.009,0.495-0.278,0.824-0.734,0.982
		c-0.423,0.147-0.789-0.018-1.063-0.329c-0.2-0.227-0.327-0.517-0.495-0.772c-1.527-2.313-3.376-4.25-6.064-5.22
		c-1.938-0.7-3.602-0.278-5.057,1.153c-0.919,0.904-1.606,1.987-2.181,3.103c-2.446,4.757-3.646,9.87-3.675,15.188
		c-0.032,6.269,0.424,12.516,1.821,18.657c0.671,2.946,1.845,5.657,3.882,7.934c1.409,1.576,2.896,1.888,4.852,1.068
		c0.978-0.41,1.851-0.991,2.669-1.662c2.12-1.738,3.883-3.807,5.438-6.042c3.06-4.393,5.729-9.024,8.249-13.744
		c0.319-0.599,0.472-1.187,0.406-1.88c-0.287-3.053-0.45-6.112-0.46-9.181c-0.018-5.172,0.193-10.332,0.74-15.475
		c0.311-2.913,0.627-5.826,0.985-8.733c0.201-1.637,0.495-3.263,0.741-4.861c-0.294-0.24-0.565-0.149-0.813-0.109
		c-3.509,0.568-7.044,0.863-10.589,1.093c-6.801,0.44-13.58,0.171-20.35-0.509c-4.229-0.425-8.436-1.013-12.638-1.654
		c-7.969-1.214-15.945-2.378-23.919-3.561c-7.938-1.177-15.897-2.137-23.928-2.433c-9.241-0.34-18.396,0.26-27.417,2.392
		c-5.945,1.404-11.697,3.359-17.196,6.039c-0.646,0.315-1.057,0.627-0.989,1.458c0.147,1.833,0.19,3.673,0.279,5.511
		c0.132,2.713,0.218,5.431,0.41,8.14c0.283,3.968,0.702,7.927,0.951,11.896c0.189,3.017,0.505,6.02,0.755,9.03
		c0.394,4.719,1.114,9.39,2.01,14.034c0.765,3.962,1.707,7.882,3.24,11.632C104.164,255.667,104.528,256.61,105.282,257.347z
		 M243.943,186.461c0.085,0.049,0.123,0.092,0.152,0.085c0.212-0.043,0.43-0.077,0.633-0.15c4.044-1.446,7.727-3.509,10.811-6.529
		c2.012-1.97,3.44-4.307,3.957-7.116c0.313-1.708,0.313-3.405-0.575-4.98c-0.886-1.574-2.475-2.166-4.143-1.527
		c-0.987,0.378-1.861,0.939-2.633,1.684c-1.989,1.92-3.335,4.257-4.446,6.747c-1.18,2.641-2.018,5.409-2.891,8.156
		C244.434,184.008,244.01,185.215,243.943,186.461z M327.824,206.215c-0.144-4.18-0.775-8.092-2.412-11.797
		c-0.589-1.334-1.313-2.58-2.439-3.539c-1.098-0.935-2.178-0.82-3.051,0.336c-0.314,0.416-0.591,0.878-0.792,1.358
		c-1.652,3.939-1.278,7.705,1.118,11.229c1.641,2.414,4.062,3.813,6.718,4.845c0.677,0.263,0.827,0.136,0.854-0.624
		C327.842,207.367,327.824,206.709,327.824,206.215z M299.02,211.986c1.669-0.005,3.444-0.235,5.149-0.868
		c2.919-1.083,4.522-3.438,4.333-6.346c-0.113-1.738-0.853-3.201-2.025-4.456c-2.075-2.219-3.833-2.082-5.565,0.418
		c-1.899,2.739-2.991,5.826-3.869,9.002C296.405,212.037,296.412,212.039,299.02,211.986z M121.716,212.947
		c1.141-0.19,2.188-0.294,3.2-0.548c2.348-0.589,4.605-1.387,6.343-3.208c2.9-3.039,2.392-7.396-1.133-9.543
		c-1.201-0.732-2.392-0.717-3.551,0.121c-1.056,0.763-1.75,1.816-2.369,2.93c-1.21,2.175-1.597,4.611-2.142,6.986
		C121.836,210.686,121.594,211.721,121.716,212.947z M110.489,173.343c1.787-1.429,3.332-2.947,4.505-4.795
		c1.23-1.94,1.783-4.087,1.468-6.385c-0.163-1.187-0.508-2.405-1.83-2.791c-1.278-0.374-2.14,0.484-2.918,1.347
		c-1.107,1.228-1.699,2.734-2.25,4.26c-0.406,1.123-0.691,2.231-0.179,3.422c0.221,0.51,0.229,1.108,0.368,1.657
		C109.919,171.104,110.023,172.194,110.489,173.343z M110.903,179c0.008,0,0.016,0,0.024,0c0,0.612-0.009,1.224,0.002,1.835
		c0.015,0.894,0.062,0.966,0.984,0.966c1.984-0.001,3.787-0.597,5.395-1.76c0.243-0.176,0.458-0.41,0.638-0.653
		c0.892-1.208,0.711-2.057-0.576-2.797c-0.381-0.22-0.792-0.354-1.211-0.487c-1.407-0.446-2.782-0.077-4.15,0.16
		c-1.21,0.209-1.25,0.335-1.167,1.557C110.869,178.212,110.883,178.606,110.903,179z"/>
	<path d="M203.268,173.45c1.096-1.224,2.201-2.345,3.488-3.266c0.977-0.699,2.022-1.208,3.254-1.273
		c1.797-0.096,3.229,0.551,4.342,1.974c1.239,1.583,1.853,3.39,1.793,5.37c-0.116,3.875-1.42,7.237-4.355,9.92
		c-2.161,1.976-7.689,3.176-10.563,1.056c-0.448-0.33-0.74-0.339-1.253-0.016c-1.152,0.728-2.257,0.131-2.48-1.244
		c-0.775-4.756-0.687-9.504,0.171-14.238c0.139-0.771,0.363-1.541,0.661-2.265c0.365-0.886,0.954-1.585,2.052-1.554
		c0.898,0.025,1.785,0.71,2.081,1.738c0.266,0.92,0.508,1.856,0.521,2.832C202.981,172.77,202.882,173.093,203.268,173.45z
		 M205.45,185.36c2.2,0.104,3.758-0.881,4.84-2.761c1.636-2.838,2.097-5.806,1.112-8.959c-0.566-1.818-1.48-2.242-3.164-1.48
		c-1.473,0.667-2.639,1.697-3.559,3.019c-1.473,2.116-2.43,4.429-2.837,6.987c-0.225,1.415,0.413,2.594,1.79,3.022
		C204.232,185.374,204.845,185.33,205.45,185.36z"/>
	<path d="M144.264,160.073c0.914,2.636,1.12,5.205,1.202,7.79c0.018,0.567-0.006,1.138-0.042,1.705
		c-0.039,0.59,0.226,0.772,0.783,0.704c0.607-0.075,1.221-0.113,1.832-0.151c0.493-0.031,0.875,0.182,1.005,0.664
		c0.133,0.497-0.169,0.853-0.563,1.083c-0.654,0.38-1.41,0.467-2.138,0.599c-0.717,0.13-1.012,0.44-1.014,1.222
		c-0.004,1.353-0.125,2.708-0.264,4.056c-0.061,0.597,0.106,0.871,0.688,0.731c1.708-0.41,3.508,0.137,5.19-0.53
		c0.347-0.137,0.702-0.023,0.928,0.305c0.251,0.362,0.213,0.746,0.013,1.117c-0.275,0.508-0.771,0.698-1.284,0.83
		c-2.08,0.533-4.197,0.887-6.32,1.168c-1.537,0.203-2.629-0.605-3.155-2.175c-0.6-1.789-0.956-3.635-1.2-5.5
		c-0.362-2.776-0.705-5.555-1.021-8.337c-0.193-1.701-0.153-3.409-0.007-5.114c0.062-0.714,0.293-1.373,0.679-1.966
		c0.383-0.589,0.97-0.844,1.66-0.927c2.357-0.285,4.719-0.261,7.082-0.109c0.217,0.014,0.436,0.052,0.646,0.109
		c0.691,0.186,1.022,0.597,0.962,1.199c-0.063,0.621-0.454,0.919-1.04,0.989C147.412,159.71,145.939,159.878,144.264,160.073z"/>
	<path d="M129.982,172.178c0,1.577-0.012,3.154,0.004,4.731c0.01,0.867,0.048,0.904,0.921,0.695c1.403-0.336,2.8-0.705,4.193-1.078
		c0.958-0.256,1.418-0.189,1.636,0.291c0.253,0.56-0.044,1.08-0.917,1.484c-1.111,0.515-2.201,1.083-3.375,1.454
		c-0.963,0.304-1.884,0.695-2.782,1.165c-1.359,0.711-2.309,0.454-3.144-0.839c-0.961-1.489-1.466-3.184-1.915-4.869
		c-1.219-4.58-2.105-9.218-2.054-13.99c0.008-0.749,0.062-1.49,0.195-2.223c0.118-0.651,0.346-1.267,0.747-1.807
		c1.011-1.361,2.471-1.386,3.516-0.055c0.775,0.988,1.14,2.158,1.48,3.341C129.592,164.301,129.78,168.237,129.982,172.178z"/>
	<path d="M159.17,163.458c-0.104,1.628,0.621,2.937,1.435,4.189c1,1.541,2.118,3.01,2.919,4.671c0.955,1.981,1.429,3.991,0.59,6.193
		c-0.809,2.125-4.252,3.547-6.303,2.326c-1.094-0.652-1.958-2.154-1.854-3.409c0.032-0.387,0.18-0.681,0.578-0.775
		c0.451-0.106,0.776,0.083,0.94,0.504c0.157,0.408,0.271,0.832,0.539,1.19c0.702,0.937,1.986,0.965,2.708,0.059
		c0.281-0.354,0.279-0.721,0.048-1.094c-0.347-0.557-0.694-1.105-1.146-1.594c-1.368-1.477-2.67-3.005-3.9-4.605
		c-2.589-3.364-2.029-8.884,0.687-11.933c1.474-1.654,4.861-2.367,6.822,0.067c1.245,1.546,1.665,3.239,1.374,5.147
		c-0.058,0.379-0.249,0.745-0.417,1.099c-0.229,0.482-0.616,0.761-1.165,0.627c-0.558-0.136-0.74-0.569-0.706-1.104
		c0.022-0.349,0.095-0.696,0.102-1.045c0.021-0.981-0.11-1.932-0.78-2.708c-0.887-1.029-1.843-0.852-2.229,0.436
		C159.237,162.275,159.061,162.878,159.17,163.458z"/>
	<path d="M188.59,167.95c0.142,2.478-0.522,4.705-0.993,6.963c0.315,0.301,0.725,0.303,1.102,0.388
		c0.688,0.155,1.338,0.415,1.955,0.741c0.471,0.249,0.69,0.671,0.556,1.211c-0.124,0.495-0.654,0.84-1.255,0.669
		c-0.901-0.256-1.823-0.184-2.727-0.322c-0.419-0.063-0.653,0.077-0.8,0.473c-0.501,1.352-1.025,2.696-1.533,4.045
		c-0.203,0.538-0.045,0.77,0.568,0.84c1.736,0.2,3.437,0.665,5.189,0.76c0.549,0.03,0.971,0.242,0.988,0.825
		c0.018,0.592-0.404,0.78-0.947,0.86c-2.35,0.347-4.701,0.476-7.063,0.154c-0.303-0.041-0.602-0.12-0.897-0.197
		c-0.998-0.263-1.575-0.876-1.654-1.939c-0.107-1.443-0.132-2.883,0.009-4.325c0.319-3.269,0.914-6.496,1.539-9.716
		c0.243-1.249,0.779-2.417,1.329-3.558c0.518-1.073,1.704-1.621,2.762-1.175c1.758,0.742,3.644,0.908,5.452,1.406
		c0.514,0.142,0.999,0.318,1.442,0.602c0.409,0.261,0.584,0.652,0.479,1.129c-0.093,0.42-0.377,0.677-0.797,0.783
		c-0.516,0.129-1.032,0.168-1.559,0.052C190.758,168.407,189.778,168.203,188.59,167.95z"/>
	<path d="M172.094,161.629c1.702-0.03,2.843,0.739,3.629,1.986c0.948,1.504,1.22,3.17,0.781,4.917
		c-0.192,0.766-0.551,1.085-1.124,1.056c-0.61-0.031-0.969-0.446-0.997-1.297c-0.029-0.886-0.136-1.746-0.514-2.553
		c-0.146-0.315-0.311-0.629-0.517-0.906c-0.213-0.285-0.514-0.527-0.896-0.434c-0.408,0.1-0.458,0.485-0.498,0.836
		c-0.091,0.796,0.002,1.568,0.295,2.318c0.466,1.191,1.124,2.271,1.844,3.321c1.186,1.731,2.44,3.424,3.17,5.425
		c0.412,1.13,0.591,2.257,0.336,3.472c-0.63,3.008-4.011,4.813-6.82,3.532c-1.655-0.755-2.419-2.215-2.713-3.939
		c-0.09-0.526,0.146-0.981,0.703-1.098c0.516-0.108,0.814,0.199,0.931,0.698c0.112,0.48,0.348,0.894,0.706,1.237
		c0.585,0.558,1.258,0.771,2.047,0.533c0.668-0.202,0.806-0.433,0.5-1.045c-0.312-0.625-0.69-1.217-1.067-1.806
		c-1.132-1.77-2.301-3.517-3.185-5.433c-1.071-2.321-1.256-4.718-0.578-7.168c0.386-1.395,1.144-2.548,2.478-3.244
		C171.12,161.77,171.651,161.595,172.094,161.629z"/>
</g>
</svg>
